<svg id="Layer_1" data-name="Layer 1" xmlns="http://www.w3.org/2000/svg" viewBox="100 52 100 129.82"><defs><style>.cls-1{fill:#fff;}.cls-2{fill:#4267b2;}.cls-3{fill:#32363b;}</style></defs><title>Thumb-Icon-RGB-BRC-Site-300</title><path class="cls-1" d="M203.43,135.92l-3.71,1.15,2.34,3.11A8.08,8.08,0,0,1,196.94,153l-3.72.62L195,157a8.08,8.08,0,0,1-6.67,11.79l-46.73,0a17.35,17.35,0,0,1-9.93-3.63,10.64,10.64,0,0,0-2.59-1.7l-1-.46V119.82l4.87-4.17,16.44-30.48a13.5,13.5,0,0,0,1.93-8.07L150,60a7.49,7.49,0,0,1,3.73-1c7.1,0,13.18,11.34,13.18,20.63a26.16,26.16,0,0,1-.29,3.85L163.75,102h35.64a8.76,8.76,0,0,1,6.17,2.61,7.77,7.77,0,0,1,2.35,5.55,8,8,0,0,1-3.22,6.4l-3.31,2.51,3.62,2.05a8.11,8.11,0,0,1-1.57,14.8Z"/><path class="cls-2" d="M88.53,111.32a.17.17,0,0,0-.17.16V175a.17.17,0,0,0,.17.16h36.59a.18.18,0,0,0,.18-.16V111.48a.18.18,0,0,0-.18-.16Z"/><path class="cls-3" d="M214.6,128.18a13.62,13.62,0,0,0-4.1-9.71,13.39,13.39,0,0,0,2.89-8.27,13.23,13.23,0,0,0-3.94-9.45,14.29,14.29,0,0,0-10.06-4.23H170.13L172,84.32a31.85,31.85,0,0,0,.35-4.68c0-12.08-8.15-26.11-18.66-26.11a13,13,0,0,0-8.34,3l-1.08.9,1.53,20.06a8.24,8.24,0,0,1-.21,2.53,7.68,7.68,0,0,1-1,2.33l-16.07,29.78-.6.52a5.63,5.63,0,0,0-5.56-4.81H91.25a5.63,5.63,0,0,0-5.63,5.63v58.78a5.63,5.63,0,0,0,5.63,5.62h31.16a5.63,5.63,0,0,0,5.63-5.62v-3l0,0a22.78,22.78,0,0,0,13.47,4.94h0l46.81,0h.15A13.61,13.61,0,0,0,201,157.52a13.57,13.57,0,0,0,7.14-17.75A13.51,13.51,0,0,0,214.6,128.18Zm-92,44.09a.17.17,0,0,1-.15.15H91.25a.17.17,0,0,1-.16-.15V113.49a.16.16,0,0,1,.16-.15h31.16a.16.16,0,0,1,.15.15v58.78Zm80.87-36.35-3.71,1.15,2.34,3.11A8.08,8.08,0,0,1,196.94,153l-3.72.62L195,157a8.08,8.08,0,0,1-6.67,11.79l-46.73,0a17.35,17.35,0,0,1-9.93-3.63,10.64,10.64,0,0,0-2.59-1.7l-1-.46V119.82l4.87-4.17,16.44-30.48a13.5,13.5,0,0,0,1.93-8.07L150,60a7.49,7.49,0,0,1,3.73-1c7.1,0,13.18,11.34,13.18,20.63a26.16,26.16,0,0,1-.29,3.85L163.75,102h35.64a8.76,8.76,0,0,1,6.17,2.61,7.77,7.77,0,0,1,2.35,5.55,8,8,0,0,1-3.22,6.4l-3.31,2.51,3.62,2.05a8.11,8.11,0,0,1-1.57,14.8Z"/></svg>
