<svg width="40" height="40" viewBox="0 0 40 40" fill="none" xmlns="http://www.w3.org/2000/svg">
<path d="M20 23.75C25.1777 23.75 29.375 19.5527 29.375 14.375C29.375 9.19733 25.1777 5 20 5C14.8223 5 10.625 9.19733 10.625 14.375C10.625 19.5527 14.8223 23.75 20 23.75Z" stroke="black" stroke-width="2.5" stroke-linejoin="round"/>
<path d="M26.875 35C32.0527 35 36.25 30.8027 36.25 25.625C36.25 20.4473 32.0527 16.25 26.875 16.25C21.6973 16.25 17.5 20.4473 17.5 25.625C17.5 30.8027 21.6973 35 26.875 35Z" stroke="black" stroke-width="2.5" stroke-linejoin="round"/>
<path d="M13.125 35C18.3027 35 22.5 30.8027 22.5 25.625C22.5 20.4473 18.3027 16.25 13.125 16.25C7.94733 16.25 3.75 20.4473 3.75 25.625C3.75 30.8027 7.94733 35 13.125 35Z" stroke="black" stroke-width="2.5" stroke-linejoin="round"/>
</svg>
