<svg width="709" height="153" viewBox="0 0 709 153" fill="none" xmlns="http://www.w3.org/2000/svg">
<path d="M255.451 35.3817H223.529V117.232H255.451C278.018 117.232 294.271 98.9914 294.271 76.3071C294.271 53.6227 278.018 35.3817 255.451 35.3817ZM255.451 106.943H234.403V45.6715H255.451C272.289 45.6715 283.865 59.0015 283.865 76.3071C283.865 93.6126 272.289 106.943 255.451 106.943ZM311.55 48.127C315.292 48.127 318.332 45.0869 318.332 41.3451C318.332 37.6034 315.292 34.4463 311.55 34.4463C307.692 34.4463 304.652 37.6034 304.652 41.3451C304.652 45.0869 307.692 48.127 311.55 48.127ZM306.406 117.232H316.578V58.7676H306.406V117.232ZM380.507 58.7676V68.8236C375.83 61.6909 368.346 57.2475 358.407 57.2475C342.154 57.2475 328.824 70.6944 328.824 88C328.824 105.306 342.154 118.753 358.407 118.753C368.346 118.753 375.83 114.309 380.507 107.176V117.232H390.68V58.7676H380.507ZM359.693 108.93C348.001 108.93 338.997 99.9268 338.997 88C338.997 76.0732 348.001 67.0696 359.693 67.0696C371.503 67.0696 380.507 76.0732 380.507 88C380.507 99.9268 371.503 108.93 359.693 108.93ZM469.235 57.2475C461.634 57.2475 454.969 60.5216 450.877 67.1866C447.486 60.8724 441.639 57.2475 433.688 57.2475C426.555 57.2475 420.475 60.0539 416.265 66.6019V58.7676H406.093V117.232H416.265V84.726C416.265 72.0976 423.398 66.9527 431.232 66.9527C438.833 66.9527 443.627 71.9807 443.627 81.2181V117.232H453.8V84.726C453.8 72.0976 459.997 66.9527 468.182 66.9527C475.9 66.9527 481.044 71.9807 481.044 81.2181V117.232H491.217V80.8673C491.217 66.2511 482.214 57.2475 469.235 57.2475ZM532.801 118.753C549.873 118.753 563.671 105.306 563.671 88C563.671 70.6944 549.873 57.2475 532.801 57.2475C515.73 57.2475 502.049 70.6944 502.049 88C502.049 105.306 515.73 118.753 532.801 118.753ZM532.801 108.813C521.225 108.813 512.222 99.8099 512.222 88C512.222 76.1901 521.225 67.1866 532.801 67.1866C544.494 67.1866 553.498 76.1901 553.498 88C553.498 99.8099 544.494 108.813 532.801 108.813ZM604.779 57.2475C596.594 57.2475 590.163 60.2877 585.836 67.1866V58.7676H575.663V117.232H585.836V86.2461C585.836 72.4484 593.437 66.9527 602.791 66.9527C611.795 66.9527 617.29 72.3315 617.29 81.9197V117.232H627.463V81.335C627.463 66.3681 618.46 57.2475 604.779 57.2475ZM690.073 35.3817V68.8236C685.396 61.6909 677.913 57.2475 667.974 57.2475C651.721 57.2475 638.391 70.6944 638.391 88C638.391 105.306 651.721 118.753 667.974 118.753C677.913 118.753 685.396 114.309 690.073 107.176V117.232H700.246V35.3817H690.073ZM669.26 108.93C657.567 108.93 648.563 99.9268 648.563 88C648.563 76.0732 657.567 67.0696 669.26 67.0696C681.07 67.0696 690.073 76.0732 690.073 88C690.073 99.9268 681.07 108.93 669.26 108.93Z" fill="#1B1E1E"/>
<path d="M2.90283 89.1442L43.1933 62.9795L66.6108 99.4491L86.7814 61.3526L122.806 85.9377L125.494 41.4517L172.436 44.4149" stroke="#005BFF" stroke-width="6.88624"/>
<path d="M17.5019 43.7337L42.131 20.9364C42.9032 20.2216 43.8409 19.7099 44.8598 19.4471L102.917 4.478C103.966 4.20746 105.067 4.20986 106.115 4.48498L138.64 13.0226M17.5019 43.7337L41.5219 60.6074C42.6791 61.4203 44.0745 61.8238 45.487 61.7539L85.0333 59.7962C85.9267 59.7519 86.8007 59.5195 87.5981 59.114L122.339 41.4493C123.509 40.8542 124.466 39.9109 125.079 38.7494L138.64 13.0226M17.5019 43.7337L3.88684 84.365C2.92838 87.2253 4.11401 90.3652 6.72381 91.8781L103.973 148.254C106.98 149.998 110.83 149 112.612 146.016L170.977 48.2788C172.549 45.646 172.016 42.2659 169.71 40.245L138.64 13.0226" stroke="#005BFF" stroke-width="6.88624"/>
<path d="M3.23389 88.9379L66.7795 102.945L123.698 87.8167L172.322 44.6245" stroke="#005BFF" stroke-width="6.88624"/>
<path d="M66.7739 102.95L108.365 147.401C108.653 147.708 109.167 147.573 109.266 147.164L123.695 87.8013" stroke="#005BFF" stroke-width="6.88624"/>
</svg>
