<svg width="1759" height="404" viewBox="0 0 1759 404" fill="none" xmlns="http://www.w3.org/2000/svg">
<path d="M184.414 382.667C182.824 384.445 180.041 384.445 178.451 382.667L17.203 202.392C15.9874 201.033 15.8448 199.024 16.8561 197.507L63.6675 127.281C64.4093 126.168 65.6583 125.5 66.9958 125.5H181.432H295.869C297.206 125.5 298.455 126.168 299.197 127.281L309.122 120.666L299.197 127.281L346.009 197.507C347.02 199.024 346.877 201.033 345.662 202.392L184.414 382.667Z" stroke="black" stroke-width="24"/>
<path d="M28 201.5H108L184.5 130.5L264 201.5H331" stroke="black" stroke-width="24" stroke-linecap="round"/>
<path d="M70.5 133L180 385" stroke="black" stroke-width="24" stroke-linecap="round"/>
<path d="M297.101 136.046L182.498 385.269" stroke="black" stroke-width="24" stroke-linecap="round"/>
<path d="M322 201L56.5 201" stroke="black" stroke-width="24" stroke-linecap="round"/>
<path d="M259.308 38.3782L240.5 68.5854" stroke="black" stroke-width="20" stroke-linecap="round"/>
<path d="M99.5 38.3782L118.308 68.5854" stroke="black" stroke-width="20" stroke-linecap="round"/>
<path d="M180.258 45.5652L179.097 9.99999" stroke="black" stroke-width="20" stroke-linecap="round"/>
<path d="M628.733 185.628C628.733 185.714 628.663 185.784 628.577 185.784C628.49 185.784 628.42 185.855 628.42 185.941V326C628.42 327.105 627.525 328 626.42 328H582.806C581.701 328 580.806 327.105 580.806 326V314.417C580.806 312.353 577.772 311.471 576.457 313.062C572.564 317.77 567.54 321.81 561.384 325.181C552.822 329.775 543.32 332.072 532.879 332.072C518.26 332.072 505.522 328.626 494.662 321.735C484.012 314.843 475.867 305.446 470.229 293.542C464.59 281.43 461.771 267.752 461.771 252.507C461.771 237.471 464.695 223.897 470.542 211.784C476.389 199.672 484.743 190.17 495.602 183.278C506.67 176.387 519.305 172.941 533.505 172.941C544.156 172.941 553.658 175.238 562.011 179.833C567.821 183.028 572.621 187.032 576.411 191.844C577.702 193.485 580.806 192.621 580.806 190.534V110.725C580.806 109.62 581.701 108.725 582.806 108.725H626.733C627.838 108.725 628.733 109.62 628.733 110.725V185.628ZM546.662 292.289C558.148 292.289 567.023 288.53 573.288 281.012C579.553 273.494 582.686 263.993 582.686 252.507C582.686 241.23 579.553 231.832 573.288 224.314C567.023 216.796 558.148 213.037 546.662 213.037C535.802 213.037 527.031 216.692 520.349 224.001C513.875 231.31 510.638 240.812 510.638 252.507C510.638 264.201 513.875 273.808 520.349 281.326C527.031 288.635 535.802 292.289 546.662 292.289Z" fill="black"/>
<path d="M668.21 179.013C668.21 177.909 669.106 177.013 670.21 177.013H714.137C715.242 177.013 716.137 177.909 716.137 179.013V326C716.137 327.105 715.242 328 714.137 328H670.21C669.106 328 668.21 327.105 668.21 326V179.013ZM692.33 163.857C683.768 163.857 676.668 161.038 671.029 155.399C665.6 149.761 662.885 142.869 662.885 134.725C662.885 126.371 665.6 119.375 671.029 113.737C676.668 108.098 683.768 105.279 692.33 105.279C700.893 105.279 707.993 108.203 713.631 114.05C719.27 119.689 722.089 126.58 722.089 134.725C722.089 142.869 719.27 149.761 713.631 155.399C707.993 161.038 700.893 163.857 692.33 163.857Z" fill="black"/>
<path d="M815.844 332.072C801.225 332.072 788.487 328.626 777.627 321.735C766.977 314.843 758.832 305.446 753.194 293.542C747.555 281.43 744.736 267.752 744.736 252.507C744.736 237.471 747.66 223.897 753.507 211.784C759.354 199.672 767.708 190.17 778.567 183.278C789.635 176.387 802.27 172.941 816.47 172.941C827.121 172.941 836.623 175.238 844.976 179.833C850.786 183.028 855.586 187.032 859.376 191.844C860.667 193.485 863.771 192.621 863.771 190.534V179.013C863.771 177.909 864.667 177.013 865.771 177.013H909.385C910.49 177.013 911.385 177.909 911.385 179.013V326C911.385 327.105 910.49 328 909.385 328H865.771C864.667 328 863.771 327.105 863.771 326V314.417C863.771 312.353 860.737 311.471 859.422 313.062C855.529 317.77 850.505 321.81 844.35 325.181C835.787 329.775 826.285 332.072 815.844 332.072ZM829.627 292.289C841.113 292.289 849.988 288.53 856.253 281.012C862.518 273.494 865.651 263.993 865.651 252.507C865.651 241.23 862.518 231.832 856.253 224.314C849.988 216.796 841.113 213.037 829.627 213.037C818.767 213.037 809.997 216.692 803.314 224.001C796.84 231.31 793.603 240.812 793.603 252.507C793.603 264.201 796.84 273.808 803.314 281.326C809.997 288.635 818.767 292.289 829.627 292.289Z" fill="black"/>
<path d="M951.175 179.013C951.175 177.909 952.071 177.013 953.175 177.013H997.102C998.207 177.013 999.102 177.909 999.102 179.013V189.277C999.102 191.448 1002.63 192.336 1003.94 190.601C1006.98 186.569 1010.79 183.084 1015.39 180.146C1023.12 175.343 1032.1 172.941 1042.33 172.941C1064.38 172.941 1079.53 180.911 1087.79 196.852C1088.57 198.373 1090.86 198.458 1091.77 197.003C1095.87 190.406 1101.52 184.996 1108.74 180.772C1117.3 175.552 1127.01 172.941 1137.87 172.941C1173.58 172.941 1191.44 193.407 1191.44 234.338V326C1191.44 327.105 1190.54 328 1189.44 328H1145.2C1144.09 328 1143.2 327.105 1143.2 326V243.109C1143.2 232.876 1141.32 225.358 1137.56 220.555C1133.8 215.752 1128.16 213.35 1120.64 213.35C1112.5 213.35 1106.23 216.17 1101.85 221.808C1097.46 227.238 1095.27 236.74 1095.27 250.314V326C1095.27 327.105 1094.37 328 1093.27 328H1049.03C1047.93 328 1047.03 327.105 1047.03 326V242.796C1047.03 232.563 1045.15 225.15 1041.39 220.555C1037.84 215.752 1032.31 213.35 1024.79 213.35C1016.44 213.35 1010.07 216.17 1005.68 221.808C1001.3 227.238 999.102 236.74 999.102 250.314V326C999.102 327.105 998.207 328 997.102 328H953.175C952.071 328 951.175 327.105 951.175 326V179.013Z" fill="black"/>
<path d="M1301.29 332.699C1284.38 332.699 1269.55 329.253 1256.81 322.361C1244.07 315.47 1234.26 305.968 1227.37 293.856C1220.68 281.743 1217.34 267.96 1217.34 252.507C1217.34 237.053 1220.68 223.374 1227.37 211.471C1234.26 199.359 1244.07 189.857 1256.81 182.965C1269.55 176.074 1284.38 172.628 1301.29 172.628C1318.21 172.628 1332.93 176.074 1345.46 182.965C1358.2 189.857 1367.91 199.359 1374.59 211.471C1381.49 223.583 1384.93 237.262 1384.93 252.507C1384.93 267.96 1381.49 281.743 1374.59 293.856C1367.91 305.968 1358.2 315.47 1345.46 322.361C1332.93 329.253 1318.21 332.699 1301.29 332.699ZM1301.29 291.976C1312.36 291.976 1321.13 288.322 1327.61 281.012C1334.08 273.703 1337.32 264.201 1337.32 252.507C1337.32 240.812 1334.08 231.31 1327.61 224.001C1321.13 216.692 1312.36 213.037 1301.29 213.037C1290.02 213.037 1281.14 216.692 1274.67 224.001C1268.4 231.31 1265.27 240.812 1265.27 252.507C1265.27 264.201 1268.4 273.703 1274.67 281.012C1281.14 288.322 1290.02 291.976 1301.29 291.976Z" fill="black"/>
<path d="M1412.48 179.013C1412.48 177.909 1413.38 177.013 1414.48 177.013H1458.41C1459.52 177.013 1460.41 177.909 1460.41 179.013V190.829C1460.41 192.918 1463.5 193.768 1464.77 192.113C1468.7 187.028 1473.61 182.934 1479.52 179.833C1487.87 175.238 1497.79 172.941 1509.28 172.941C1546.03 172.941 1564.41 193.511 1564.41 234.651V326C1564.41 327.105 1563.52 328 1562.41 328H1518.17C1517.07 328 1516.17 327.105 1516.17 326V250.314C1516.17 237.366 1514.08 227.969 1509.91 222.121C1505.94 216.274 1499.15 213.35 1489.54 213.35C1479.94 213.35 1472.63 216.379 1467.62 222.435C1462.81 228.491 1460.41 237.366 1460.41 249.061V326C1460.41 327.105 1459.52 328 1458.41 328H1414.48C1413.38 328 1412.48 327.105 1412.48 326V179.013Z" fill="black"/>
<path d="M1758.76 185.628C1758.76 185.714 1758.69 185.784 1758.6 185.784C1758.52 185.784 1758.44 185.855 1758.44 185.941V326C1758.44 327.105 1757.55 328 1756.44 328H1712.83C1711.73 328 1710.83 327.105 1710.83 326V314.417C1710.83 312.353 1707.8 311.471 1706.48 313.062C1702.59 317.77 1697.57 321.81 1691.41 325.181C1682.85 329.775 1673.35 332.072 1662.9 332.072C1648.29 332.072 1635.55 328.626 1624.69 321.735C1614.04 314.843 1605.89 305.446 1600.25 293.542C1594.62 281.43 1591.8 267.752 1591.8 252.507C1591.8 237.471 1594.72 223.897 1600.57 211.784C1606.41 199.672 1614.77 190.17 1625.63 183.278C1636.7 176.387 1649.33 172.941 1663.53 172.941C1674.18 172.941 1683.68 175.238 1692.04 179.833C1697.85 183.028 1702.65 187.032 1706.44 191.844C1707.73 193.485 1710.83 192.621 1710.83 190.534V110.725C1710.83 109.62 1711.73 108.725 1712.83 108.725H1756.76C1757.86 108.725 1758.76 109.62 1758.76 110.725V185.628ZM1676.69 292.289C1688.17 292.289 1697.05 288.53 1703.31 281.012C1709.58 273.494 1712.71 263.993 1712.71 252.507C1712.71 241.23 1709.58 231.832 1703.31 224.314C1697.05 216.796 1688.17 213.037 1676.69 213.037C1665.83 213.037 1657.06 216.692 1650.37 224.001C1643.9 231.31 1640.66 240.812 1640.66 252.507C1640.66 264.201 1643.9 273.808 1650.37 281.326C1657.06 288.635 1665.83 292.289 1676.69 292.289Z" fill="black"/>
</svg>
