<svg width="127" height="37" viewBox="0 0 127 37" fill="none" xmlns="http://www.w3.org/2000/svg">
<path d="M55.246 5.7231C57.4932 5.7231 59.5571 6.26199 61.4374 7.33976C63.3407 8.39461 64.8427 9.85075 65.9434 11.7082C67.0442 13.5427 67.5945 15.5836 67.5945 17.8309C67.5945 20.0781 67.0442 22.119 65.9434 23.9535C64.8427 25.7651 63.3407 27.1983 61.4374 28.2532C59.5571 29.2851 57.4932 29.801 55.246 29.801H45.6836V5.7231H55.246ZM55.246 25.5358C56.6906 25.5358 58.0092 25.2033 59.2016 24.5383C60.3941 23.8503 61.3342 22.9102 62.0222 21.7177C62.7331 20.5253 63.0885 19.2182 63.0885 17.7965C63.0885 16.3747 62.7331 15.0676 62.0222 13.8752C61.3342 12.6598 60.3941 11.7082 59.2016 11.0202C58.0092 10.3323 56.6906 9.98833 55.246 9.98833H50.1896V25.5358H55.246Z" fill="white"/>
<path d="M78.5177 12.1553C80.1688 12.1553 81.6478 12.5681 82.9549 13.3936C84.2849 14.1962 85.3169 15.2855 86.0507 16.6614C86.7845 18.0372 87.1514 19.5622 87.1514 21.2362C87.1514 21.7865 87.1055 22.291 87.0138 22.7496H73.7365C74.0805 23.965 74.6882 24.9166 75.5596 25.6046C76.431 26.2696 77.5431 26.6021 78.8961 26.6021C79.7216 26.6021 80.5127 26.4187 81.2695 26.0518C82.0491 25.6848 82.6339 25.2148 83.0237 24.6415L86.2914 26.5677C85.4888 27.7601 84.4455 28.6774 83.1613 29.3195C81.9001 29.9386 80.4439 30.2482 78.7929 30.2482C76.9584 30.2482 75.3303 29.8584 73.9085 29.0787C72.4868 28.299 71.3861 27.2213 70.6064 25.8454C69.8497 24.4695 69.4713 22.9216 69.4713 21.2018C69.4713 19.5048 69.8497 17.9684 70.6064 16.5926C71.3861 15.2167 72.4638 14.1389 73.8397 13.3592C75.2156 12.5566 76.7749 12.1553 78.5177 12.1553ZM83.1613 19.4131C82.9779 18.3124 82.4619 17.4525 81.6134 16.8333C80.7879 16.1913 79.7445 15.8702 78.4833 15.8702C77.6119 15.8702 76.8093 16.0307 76.0755 16.3518C75.3647 16.6728 74.7914 17.1085 74.3557 17.6589C73.92 18.2092 73.6907 18.794 73.6677 19.4131H83.1613Z" fill="white"/>
<path d="M98.777 30.2482C96.4151 30.2482 94.4315 29.7208 92.8263 28.6659C91.2211 27.6111 90.0975 26.1893 89.4554 24.4007L93.2391 22.1649C94.1793 24.6185 96.0597 25.8454 98.8802 25.8454C100.141 25.8454 101.116 25.5473 101.804 24.951C102.492 24.3548 102.836 23.6669 102.836 22.8872C102.836 22.1076 102.458 21.4769 101.701 20.9954C100.967 20.5138 99.6484 19.9979 97.7451 19.4475C96.2546 18.9889 94.9934 18.4959 93.9614 17.9684C92.9295 17.4181 92.0811 16.6843 91.4161 15.767C90.774 14.8498 90.4529 13.6917 90.4529 12.2929C90.4529 10.8712 90.8084 9.6329 91.5193 8.57806C92.2301 7.50028 93.1703 6.68622 94.3398 6.13587C95.5322 5.56258 96.8279 5.27594 98.2267 5.27594C100.176 5.27594 101.861 5.74603 103.283 6.68622C104.728 7.60347 105.84 8.8991 106.62 10.5731L102.767 12.7745C101.873 10.7336 100.359 9.71316 98.2267 9.71316C97.2636 9.71316 96.4724 9.9654 95.8533 10.4699C95.2341 10.9744 94.9246 11.5706 94.9246 12.2585C94.9246 12.786 95.0621 13.2331 95.3373 13.6C95.6354 13.9669 96.0941 14.2994 96.7132 14.5975C97.3553 14.8956 98.284 15.2282 99.4994 15.5951C101.082 16.0995 102.412 16.627 103.489 17.1773C104.59 17.7277 105.496 18.4959 106.207 19.4819C106.941 20.445 107.307 21.6604 107.307 23.128C107.307 24.5727 106.941 25.8339 106.207 26.9117C105.473 27.9895 104.453 28.815 103.145 29.3883C101.861 29.9615 100.405 30.2482 98.777 30.2482Z" fill="white"/>
<path d="M117.953 30.2826C116.325 30.2826 114.812 29.8813 113.413 29.0787C112.037 28.2532 110.936 27.1525 110.111 25.7766C109.308 24.3778 108.907 22.8643 108.907 21.2362C108.907 19.608 109.308 18.106 110.111 16.7302C110.936 15.3313 112.037 14.2306 113.413 13.428C114.812 12.6025 116.325 12.1897 117.953 12.1897C119.581 12.1897 121.083 12.6025 122.459 13.428C123.858 14.2306 124.959 15.3313 125.761 16.7302C126.587 18.106 127 19.608 127 21.2362C127 22.8643 126.587 24.3778 125.761 25.7766C124.959 27.1525 123.858 28.2532 122.459 29.0787C121.083 29.8813 119.581 30.2826 117.953 30.2826ZM117.919 26.0174C118.79 26.0174 119.593 25.811 120.327 25.3982C121.061 24.9625 121.645 24.3778 122.081 23.644C122.517 22.9102 122.735 22.1076 122.735 21.2362C122.735 20.3648 122.517 19.5622 122.081 18.8284C121.645 18.0946 121.061 17.5098 120.327 17.0741C119.593 16.6384 118.79 16.4206 117.919 16.4206C117.048 16.4206 116.245 16.6384 115.511 17.0741C114.777 17.5098 114.193 18.0946 113.757 18.8284C113.344 19.5622 113.138 20.3648 113.138 21.2362C113.138 22.1076 113.344 22.9102 113.757 23.644C114.193 24.3778 114.777 24.9625 115.511 25.3982C116.245 25.811 117.048 26.0174 117.919 26.0174Z" fill="white"/>
<path d="M0.000488281 0V9.20836L24.2369 22.6724L0.000488281 36.8391H19.9699C26.3506 36.8391 31.5186 32.3058 31.5186 26.7127V18.4224L0.000488281 0Z" fill="url(#paint0_linear)"/>
<path d="M0.000488281 0L31.5186 18.4224V10.1264C31.5186 4.53335 26.3449 0 19.9699 0H0.000488281Z" fill="url(#paint1_linear)"/>
<path d="M16.5807 18.4225L0 27.6309V36.8393L24.2364 22.6726L16.5807 18.4225Z" fill="url(#paint2_linear)"/>
<defs>
<linearGradient id="paint0_linear" x1="7.74846" y1="8.28479" x2="18.7112" y2="34.7607" gradientUnits="userSpaceOnUse">
<stop stop-color="#0057FF"/>
<stop offset="1" stop-color="#00A3FF"/>
</linearGradient>
<linearGradient id="paint1_linear" x1="12.8912" y1="8.47199" x2="33.285" y2="3.08494" gradientUnits="userSpaceOnUse">
<stop stop-color="#0283FF"/>
<stop offset="1" stop-color="#01C2FF"/>
</linearGradient>
<linearGradient id="paint2_linear" x1="5.88166" y1="33.4274" x2="34.4437" y2="-4.47226" gradientUnits="userSpaceOnUse">
<stop stop-color="#0157FF"/>
<stop offset="1" stop-color="#00FFFF"/>
</linearGradient>
</defs>
</svg>
