<svg width="408" height="95" viewBox="0 0 408 95" fill="none" xmlns="http://www.w3.org/2000/svg">
<path d="M42.7806 89.4521C42.4118 89.8645 41.7663 89.8645 41.3974 89.4521L3.99079 47.6316C3.70879 47.3163 3.67569 46.8503 3.91031 46.4983L14.7697 30.2073L12.4534 28.6632L14.7697 30.2073C14.9418 29.9491 15.2315 29.794 15.5418 29.794H42.089H68.6362C68.9465 29.794 69.2362 29.9491 69.4083 30.2073L80.2677 46.4983C80.5023 46.8503 80.4692 47.3163 80.1872 47.6316L42.7806 89.4521L44.8555 91.308L42.7806 89.4521Z" stroke="black" stroke-width="5.56756"/>
<path d="M6.49548 47.4243H25.054L42.8006 30.9536L61.2432 47.4243H76.786" stroke="black" stroke-width="5.56756" stroke-linecap="round"/>
<path d="M16.3547 31.5337L41.7568 89.9931" stroke="black" stroke-width="5.56756" stroke-linecap="round"/>
<path d="M69.2466 31.5337L42.4527 90.1091" stroke="black" stroke-width="5.56756" stroke-linecap="round"/>
<path d="M74.6981 47.3086L13.1069 47.3086" stroke="black" stroke-width="5.56756" stroke-linecap="round"/>
<path d="M60.1549 9.5835L55.7917 16.591" stroke="black" stroke-width="4.63964" stroke-linecap="round"/>
<path d="M23.0823 9.5835L27.4455 16.591" stroke="black" stroke-width="4.63964" stroke-linecap="round"/>
<path d="M41.8165 11.2505L41.5472 3.00001" stroke="black" stroke-width="4.63964" stroke-linecap="round"/>
<path d="M145.855 43.7424C145.855 43.7625 145.838 43.7788 145.818 43.7788C145.798 43.7788 145.782 43.7951 145.782 43.8151V76.3062C145.782 76.5625 145.574 76.7702 145.318 76.7702H135.2C134.944 76.7702 134.736 76.5625 134.736 76.3062V73.6193C134.736 73.1405 134.033 72.9359 133.728 73.3049C132.824 74.3971 131.659 75.3342 130.231 76.1162C128.245 77.182 126.04 77.7149 123.618 77.7149C120.227 77.7149 117.272 76.9155 114.753 75.3168C112.282 73.7181 110.393 71.5381 109.084 68.7767C107.776 65.9668 107.122 62.7937 107.122 59.2571C107.122 55.7691 107.801 52.6201 109.157 49.8103C110.514 47.0004 112.451 44.7961 114.971 43.1974C117.538 41.5987 120.469 40.7994 123.763 40.7994C126.234 40.7994 128.438 41.3323 130.376 42.3981C131.724 43.1394 132.838 44.0682 133.717 45.1845C134.016 45.5651 134.736 45.3649 134.736 44.8805V26.3663C134.736 26.1101 134.944 25.9024 135.2 25.9024H145.391C145.647 25.9024 145.855 26.1101 145.855 26.3663V43.7424ZM126.816 68.486C129.48 68.486 131.539 67.614 132.992 65.87C134.446 64.1259 135.172 61.9216 135.172 59.2571C135.172 56.6411 134.446 54.461 132.992 52.717C131.539 50.9729 129.48 50.1009 126.816 50.1009C124.296 50.1009 122.262 50.9487 120.711 52.6443C119.21 54.3399 118.459 56.5442 118.459 59.2571C118.459 61.9701 119.21 64.1986 120.711 65.9426C122.262 67.6382 124.296 68.486 126.816 68.486Z" fill="black"/>
<path d="M155.013 42.208C155.013 41.9518 155.22 41.7441 155.477 41.7441H165.667C165.923 41.7441 166.131 41.9518 166.131 42.208V76.3062C166.131 76.5625 165.923 76.7702 165.667 76.7702H155.477C155.22 76.7702 155.013 76.5625 155.013 76.3062V42.208ZM160.608 38.692C158.622 38.692 156.975 38.038 155.667 36.73C154.407 35.4219 153.777 33.8232 153.777 31.9338C153.777 29.996 154.407 28.3731 155.667 27.0651C156.975 25.757 158.622 25.103 160.608 25.103C162.594 25.103 164.241 25.7813 165.549 27.1377C166.857 28.4458 167.512 30.0445 167.512 31.9338C167.512 33.8232 166.857 35.4219 165.549 36.73C164.241 38.038 162.594 38.692 160.608 38.692Z" fill="black"/>
<path d="M189.261 77.7149C185.87 77.7149 182.915 76.9155 180.395 75.3168C177.925 73.7181 176.035 71.5381 174.727 68.7767C173.419 65.9668 172.765 62.7937 172.765 59.2571C172.765 55.7691 173.443 52.6201 174.8 49.8103C176.156 47.0004 178.094 44.7961 180.613 43.1974C183.181 41.5987 186.112 40.7994 189.406 40.7994C191.877 40.7994 194.081 41.3323 196.019 42.3981C197.367 43.1394 198.48 44.0682 199.359 45.1845C199.659 45.5651 200.379 45.3649 200.379 44.8805V42.208C200.379 41.9518 200.587 41.7441 200.843 41.7441H210.961C211.217 41.7441 211.425 41.9518 211.425 42.208V76.3062C211.425 76.5625 211.217 76.7702 210.961 76.7702H200.843C200.587 76.7702 200.379 76.5625 200.379 76.3062V73.6193C200.379 73.1405 199.675 72.9359 199.37 73.3049C198.467 74.3971 197.302 75.3342 195.874 76.1162C193.887 77.182 191.683 77.7149 189.261 77.7149ZM192.458 68.486C195.123 68.486 197.182 67.614 198.635 65.87C200.088 64.1259 200.815 61.9216 200.815 59.2571C200.815 56.6411 200.088 54.461 198.635 52.717C197.182 50.9729 195.123 50.1009 192.458 50.1009C189.939 50.1009 187.904 50.9487 186.354 52.6443C184.852 54.3399 184.101 56.5442 184.101 59.2571C184.101 61.9701 184.852 64.1986 186.354 65.9426C187.904 67.6382 189.939 68.486 192.458 68.486Z" fill="black"/>
<path d="M220.655 42.208C220.655 41.9518 220.863 41.7441 221.119 41.7441H231.31C231.566 41.7441 231.774 41.9518 231.774 42.208V44.589C231.774 45.0927 232.593 45.2985 232.896 44.8961C233.6 43.9608 234.486 43.1523 235.552 42.4708C237.345 41.3565 239.428 40.7994 241.802 40.7994C246.916 40.7994 250.431 42.6483 252.347 46.3462C252.529 46.6991 253.06 46.7188 253.27 46.3813C254.221 44.851 255.534 43.5959 257.207 42.6161C259.194 41.405 261.446 40.7994 263.966 40.7994C272.25 40.7994 276.392 45.547 276.392 55.0424V76.3062C276.392 76.5625 276.184 76.7702 275.928 76.7702H265.665C265.409 76.7702 265.201 76.5625 265.201 76.3062V57.0771C265.201 54.7033 264.765 52.9592 263.893 51.845C263.021 50.7307 261.713 50.1736 259.969 50.1736C258.08 50.1736 256.626 50.8276 255.609 52.1356C254.591 53.3952 254.083 55.5995 254.083 58.7485V76.3062C254.083 76.5625 253.875 76.7702 253.619 76.7702H243.356C243.1 76.7702 242.892 76.5625 242.892 76.3062V57.0044C242.892 54.6306 242.456 52.9108 241.584 51.845C240.76 50.7307 239.476 50.1736 237.732 50.1736C235.795 50.1736 234.317 50.8276 233.3 52.1356C232.282 53.3952 231.774 55.5995 231.774 58.7485V76.3062C231.774 76.5625 231.566 76.7702 231.31 76.7702H221.119C220.863 76.7702 220.655 76.5625 220.655 76.3062V42.208Z" fill="black"/>
<path d="M301.876 77.8602C297.952 77.8602 294.513 77.0609 291.557 75.4622C288.602 73.8635 286.325 71.6592 284.727 68.8494C283.176 66.0395 282.401 62.8421 282.401 59.2571C282.401 55.6722 283.176 52.499 284.727 49.7376C286.325 46.9277 288.602 44.7235 291.557 43.1248C294.513 41.5261 297.952 40.7267 301.876 40.7267C305.8 40.7267 309.216 41.5261 312.123 43.1248C315.078 44.7235 317.331 46.9277 318.881 49.7376C320.479 52.5474 321.279 55.7206 321.279 59.2571C321.279 62.8421 320.479 66.0395 318.881 68.8494C317.331 71.6592 315.078 73.8635 312.123 75.4622C309.216 77.0609 305.8 77.8602 301.876 77.8602ZM301.876 68.4133C304.444 68.4133 306.479 67.5656 307.981 65.87C309.482 64.1744 310.233 61.9701 310.233 59.2571C310.233 56.5442 309.482 54.3399 307.981 52.6443C306.479 50.9487 304.444 50.1009 301.876 50.1009C299.26 50.1009 297.201 50.9487 295.7 52.6443C294.246 54.3399 293.52 56.5442 293.52 59.2571C293.52 61.9701 294.246 64.1744 295.7 65.87C297.201 67.5656 299.26 68.4133 301.876 68.4133Z" fill="black"/>
<path d="M327.671 42.208C327.671 41.9518 327.878 41.7441 328.135 41.7441H338.325C338.581 41.7441 338.789 41.9518 338.789 42.208V44.949C338.789 45.4336 339.505 45.6307 339.801 45.247C340.711 44.0672 341.851 43.1176 343.222 42.3981C345.16 41.3323 347.461 40.7994 350.125 40.7994C358.652 40.7994 362.915 45.5713 362.915 55.115V76.3062C362.915 76.5625 362.707 76.7702 362.451 76.7702H352.188C351.932 76.7702 351.724 76.5625 351.724 76.3062V58.7485C351.724 55.7448 351.24 53.5648 350.271 52.2083C349.35 50.8518 347.776 50.1736 345.547 50.1736C343.319 50.1736 341.623 50.8761 340.46 52.281C339.346 53.6859 338.789 55.7448 338.789 58.4578V76.3062C338.789 76.5625 338.581 76.7702 338.325 76.7702H328.135C327.878 76.7702 327.671 76.5625 327.671 76.3062V42.208Z" fill="black"/>
<path d="M408 43.7425C408 43.7625 407.984 43.7788 407.964 43.7788C407.944 43.7788 407.927 43.7951 407.927 43.8151V76.3062C407.927 76.5625 407.72 76.7702 407.463 76.7702H397.346C397.089 76.7702 396.882 76.5625 396.882 76.3062V73.6193C396.882 73.1405 396.178 72.9359 395.873 73.3049C394.97 74.3971 393.804 75.3342 392.376 76.1162C390.39 77.182 388.186 77.7149 385.763 77.7149C382.372 77.7149 379.417 76.9155 376.898 75.3168C374.427 73.7181 372.538 71.5381 371.23 68.7767C369.922 65.9668 369.268 62.7937 369.268 59.2571C369.268 55.7691 369.946 52.6201 371.302 49.8103C372.659 47.0004 374.597 44.7961 377.116 43.1974C379.684 41.5987 382.614 40.7994 385.909 40.7994C388.379 40.7994 390.584 41.3323 392.522 42.3981C393.869 43.1394 394.983 44.0682 395.862 45.1845C396.162 45.5651 396.882 45.3649 396.882 44.8805V26.3663C396.882 26.1101 397.089 25.9024 397.346 25.9024H407.536C407.792 25.9024 408 26.1101 408 26.3663V43.7425ZM388.961 68.486C391.625 68.486 393.684 67.614 395.138 65.87C396.591 64.1259 397.318 61.9216 397.318 59.2571C397.318 56.6411 396.591 54.461 395.138 52.717C393.684 50.9729 391.625 50.1009 388.961 50.1009C386.442 50.1009 384.407 50.9487 382.857 52.6443C381.355 54.3399 380.604 56.5442 380.604 59.2571C380.604 61.9701 381.355 64.1986 382.857 65.9426C384.407 67.6382 386.442 68.486 388.961 68.486Z" fill="black"/>
</svg>
