<svg width="32" height="32" viewBox="0 0 32 32" fill="none" xmlns="http://www.w3.org/2000/svg">
<path d="M3.00003 11H29M2.21378 11.7631L15.1982 28.6044C15.2925 28.7274 15.4139 28.827 15.553 28.8956C15.692 28.9642 15.845 28.9999 16 28.9999C16.1551 28.9999 16.308 28.9642 16.4471 28.8956C16.5861 28.827 16.7075 28.7274 16.8019 28.6044L29.7863 11.7631C29.9139 11.5969 29.988 11.3958 29.9986 11.1864C30.0092 10.9771 29.9559 10.7695 29.8457 10.5912L25.4413 3.48187C25.3506 3.33475 25.2238 3.21325 25.073 3.12891C24.9221 3.04457 24.7522 3.00019 24.5794 3H7.42065C7.24783 3.00019 7.07793 3.04457 6.92708 3.12891C6.77623 3.21325 6.64945 3.33475 6.55878 3.48187L2.1544 10.5912C2.04419 10.7695 1.99084 10.9771 2.00145 11.1864C2.01205 11.3958 2.08611 11.5969 2.21378 11.7631V11.7631Z" stroke="white" stroke-width="2" stroke-linecap="round" stroke-linejoin="round"/>
<path d="M25 4L22 11L16 3M7 4L10 11L16 3M16 28L10 11M16 28L22 11" stroke="white" stroke-width="2" stroke-linecap="round" stroke-linejoin="round"/>
</svg>
