<svg width="363" height="404" viewBox="0 0 363 404" fill="none" xmlns="http://www.w3.org/2000/svg">
<path d="M178.451 382.667L17.203 202.392C15.9874 201.033 15.8448 199.024 16.8561 197.507L63.6675 127.281C64.4093 126.168 65.6583 125.5 66.9958 125.5H181.432H295.869C297.206 125.5 298.455 126.168 299.197 127.281L346.009 197.507C347.02 199.024 346.877 201.033 345.662 202.392L184.414 382.667C182.824 384.445 180.041 384.445 178.451 382.667Z" stroke="black" stroke-width="24"/>
<path d="M28 201.5H108L184.5 130.5L264 201.5H331" stroke="black" stroke-width="24" stroke-linecap="round"/>
<path d="M70.5 133L180 385" stroke="black" stroke-width="24" stroke-linecap="round"/>
<path d="M297.101 136.046L182.498 385.269" stroke="black" stroke-width="24" stroke-linecap="round"/>
<path d="M322 201L56.5 201" stroke="black" stroke-width="24" stroke-linecap="round"/>
<path d="M259.308 38.3782L240.5 68.5854" stroke="black" stroke-width="20" stroke-linecap="round"/>
<path d="M99.5 38.3782L118.308 68.5854" stroke="black" stroke-width="20" stroke-linecap="round"/>
<path d="M180.258 45.5652L179.097 9.99999" stroke="black" stroke-width="20" stroke-linecap="round"/>
</svg>
