<svg id="eUt2LIcamsA1" xmlns="http://www.w3.org/2000/svg" xmlns:xlink="http://www.w3.org/1999/xlink" viewBox="0 0 363 404" shape-rendering="geometricPrecision" text-rendering="geometricPrecision"><style><![CDATA[#eUt2LIcamsA7 {animation-name: eUt2LIcamsA7_c_o, eUt2LIcamsA7_s_do;animation-duration: 1000ms;animation-fill-mode: forwards;animation-timing-function: linear;animation-direction: normal;animation-iteration-count: infinite;}@keyframes eUt2LIcamsA7_c_o { 0% {opacity: 0} 60% {opacity: 0} 70% {opacity: 1} 100% {opacity: 1}}@keyframes eUt2LIcamsA7_s_do { 0% {stroke-dashoffset: 35.58} 70% {stroke-dashoffset: 35.58} 100% {stroke-dashoffset: 71.16}} #eUt2LIcamsA8 {animation-name: eUt2LIcamsA8_s_do, eUt2LIcamsA8_s_da;animation-duration: 1000ms;animation-fill-mode: forwards;animation-timing-function: linear;animation-direction: normal;animation-iteration-count: infinite;}@keyframes eUt2LIcamsA8_s_do { 0% {stroke-dashoffset: 35.58} 20% {stroke-dashoffset: 71.16} 100% {stroke-dashoffset: 71.16}}@keyframes eUt2LIcamsA8_s_da { 0% {stroke-dasharray: 35.58} 20% {stroke-dasharray: 35.58} 100% {stroke-dasharray: 35.58}} #eUt2LIcamsA9 {animation-name: eUt2LIcamsA9_c_o, eUt2LIcamsA9_s_do;animation-duration: 1000ms;animation-fill-mode: forwards;animation-timing-function: linear;animation-direction: normal;animation-iteration-count: infinite;}@keyframes eUt2LIcamsA9_c_o { 0% {opacity: 0} 20% {opacity: 0} 30% {opacity: 1} 100% {opacity: 1}}@keyframes eUt2LIcamsA9_s_do { 0% {stroke-dashoffset: 35.58} 30% {stroke-dashoffset: 35.58} 60% {stroke-dashoffset: 71.16} 100% {stroke-dashoffset: 71.16}}]]></style><path d="M184.414,382.667c-1.59,1.778-4.373,1.778-5.963,0L17.203,202.392c-1.2156-1.359-1.3582-3.368-.3469-4.885l46.8114-70.226c.7418-1.113,1.9908-1.781,3.3283-1.781h114.4362h114.437c1.337,0,2.586.668,3.328,1.781v0v0l46.812,70.226c1.011,1.517.868,3.526-.347,4.885L184.414,382.667Z" fill="none" stroke="#EFF3F8" stroke-width="24"/><path d="M28,201.5h80l76.5-71l79.5,71h67" fill="none" stroke="#EFF3F8" stroke-width="24" stroke-linecap="round"/><path d="M70.5,133L180,385" fill="none" stroke="#EFF3F8" stroke-width="24" stroke-linecap="round"/><path d="M297.101,136.046L182.498,385.269" transform="translate(0-.269)" fill="none" stroke="#EFF3F8" stroke-width="24" stroke-linecap="round"/><path d="M322,201h-265.5" fill="none" stroke="#EFF3F8" stroke-width="24" stroke-linecap="round"/><path id="eUt2LIcamsA7" d="M259.308,38.3782L240.5,68.5854" opacity="0" fill="none" stroke="#EFF3F8" stroke-width="20" stroke-linecap="round" stroke-dashoffset="35.58" stroke-dasharray="35.58"/><path id="eUt2LIcamsA8" d="M99.5,38.3782l18.808,30.2072" fill="none" stroke="#EFF3F8" stroke-width="20" stroke-linecap="round" stroke-dashoffset="35.58" stroke-dasharray="35.58"/><path id="eUt2LIcamsA9" d="M180.258,45.5652L179.097,9.99999" transform="matrix(-1 0 0-1 359.354996 55.56519)" opacity="0" fill="none" stroke="#EFF3F8" stroke-width="20" stroke-linecap="round" stroke-dashoffset="35.58" stroke-dasharray="35.58"/></svg>
